<svg xmlns="http://www.w3.org/2000/svg" version="1.1" xmlns:xlink="http://www.w3.org/1999/xlink" xmlns:svgjs="http://svgjs.com/svgjs" width="1440" height="560" preserveAspectRatio="none" viewBox="0 0 1440 560"><g mask="url(&quot;#SvgjsMask1000&quot;)" fill="none"><rect width="1440" height="560" x="0" y="0" fill="#0e2a47"></rect><path d="M1304.5723392732436 272.48580929088223L1183.886524865958 194.11152502356552 1226.198055005927 393.1716236981677z" fill="rgba(28, 83, 142, 0.4)" class="triangle-float3"></path><path d="M508.0929902052605 179.1009284980666L685.9575907461781 194.83288520291092 622.4706234702451 52.23882203751174z" fill="rgba(28, 83, 142, 0.4)" class="triangle-float3"></path><path d="M1063.807,488.105C1104.63,490.659,1145.074,472.161,1166.377,437.243C1188.535,400.925,1188.214,355.318,1167.487,318.165C1146.208,280.022,1107.477,252.608,1063.807,253.386C1021.279,254.144,984.709,283.386,966.335,321.748C950.133,355.576,962.331,393.302,981.293,425.664C999.982,457.561,1026.91,485.797,1063.807,488.105" fill="rgba(28, 83, 142, 0.4)" class="triangle-float2"></path><path d="M84.66189969139842 149.57192113046625L188.8533881264032 253.962192488443 224.39107680961928 130.02754367387377z" fill="rgba(28, 83, 142, 0.4)" class="triangle-float3"></path><path d="M182.169,448.225C201.732,448.87,221.237,441.231,231.621,424.638C242.627,407.052,244.154,384.245,233.256,366.592C222.813,349.676,202.045,344.135,182.169,344.534C163.104,344.916,143.99,352.024,134.513,368.572C125.086,385.034,128.321,405.273,138.061,421.552C147.516,437.355,163.764,447.618,182.169,448.225" fill="rgba(28, 83, 142, 0.4)" class="triangle-float1"></path><path d="M1380.707,150.748C1398.973,151.395,1415.197,138.763,1423.27,122.365C1430.531,107.616,1426.015,90.595,1417.131,76.763C1409.046,64.175,1395.639,57.035,1380.707,56.098C1363.629,55.026,1344.133,56.918,1335.399,71.633C1326.555,86.534,1334.451,104.489,1343.062,119.526C1351.745,134.689,1363.245,150.13,1380.707,150.748" fill="rgba(28, 83, 142, 0.4)" class="triangle-float1"></path></g><defs><mask id="SvgjsMask1000"><rect width="1440" height="560" fill="#ffffff"></rect></mask><style>
            @keyframes float1 {
                0%{transform: translate(0, 0)}
                50%{transform: translate(-10px, 0)}
                100%{transform: translate(0, 0)}
            }

            .triangle-float1 {
                animation: float1 5s infinite;
            }

            @keyframes float2 {
                0%{transform: translate(0, 0)}
                50%{transform: translate(-5px, -5px)}
                100%{transform: translate(0, 0)}
            }

            .triangle-float2 {
                animation: float2 4s infinite;
            }

            @keyframes float3 {
                0%{transform: translate(0, 0)}
                50%{transform: translate(0, -10px)}
                100%{transform: translate(0, 0)}
            }

            .triangle-float3 {
                animation: float3 6s infinite;
            }
        </style></defs></svg>